<svg xmlns="http://www.w3.org/2000/svg" width="800" height="500" viewBox="0 0 800 500"><rect width="800" height="500" fill="#ffffff"/><rect x="72" y="58" width="696" height="386" fill="#fafafa"/><line x1="72" y1="444" x2="768" y2="444" stroke="#e8e8e8" stroke-width="1"/><text x="60" y="448" text-anchor="end" font-size="13" fill="#555555" font-family="sans-serif">0</text><line x1="72" y1="347.5" x2="768" y2="347.5" stroke="#e8e8e8" stroke-width="1"/><text x="60" y="351.5" text-anchor="end" font-size="13" fill="#555555" font-family="sans-serif">100</text><line x1="72" y1="251" x2="768" y2="251" stroke="#e8e8e8" stroke-width="1"/><text x="60" y="255" text-anchor="end" font-size="13" fill="#555555" font-family="sans-serif">200</text><line x1="72" y1="154.5" x2="768" y2="154.5" stroke="#e8e8e8" stroke-width="1"/><text x="60" y="158.5" text-anchor="end" font-size="13" fill="#555555" font-family="sans-serif">300</text><line x1="72" y1="58" x2="768" y2="58" stroke="#e8e8e8" stroke-width="1"/><text x="60" y="62" text-anchor="end" font-size="13" fill="#555555" font-family="sans-serif">400</text><line x1="72" y1="58" x2="72" y2="444" stroke="#888888" stroke-width="1.5"/><line x1="72" y1="444" x2="768" y2="444" stroke="#888888" stroke-width="1.5"/><text x="400" y="34" text-anchor="middle" font-size="20" fill="#222222" font-family="sans-serif">Monthly Sales Trend</text><text x="20" y="251" text-anchor="middle" font-size="14" fill="#555555" font-family="sans-serif" transform="rotate(-90 20 251)">amount</text><polyline points="130,267.88 246,284.77 362,236.81 478,216.16 594,194.74 710,152.95" fill="none" stroke="#4c78a8" stroke-width="2.5"/><circle cx="130" cy="267.88" r="3.5" fill="#4c78a8" fill-opacity="1" stroke="#fafafa" stroke-width="1.5"/><text x="130" y="257.88" text-anchor="middle" font-size="11" fill="#555555" font-family="sans-serif">182.5</text><circle cx="246" cy="284.77" r="3.5" fill="#4c78a8" fill-opacity="1" stroke="#fafafa" stroke-width="1.5"/><text x="246" y="274.77" text-anchor="middle" font-size="11" fill="#555555" font-family="sans-serif">165</text><circle cx="362" cy="236.81" r="3.5" fill="#4c78a8" fill-opacity="1" stroke="#fafafa" stroke-width="1.5"/><text x="362" y="226.81" text-anchor="middle" font-size="11" fill="#555555" font-family="sans-serif">214.7</text><circle cx="478" cy="216.16" r="3.5" fill="#4c78a8" fill-opacity="1" stroke="#fafafa" stroke-width="1.5"/><text x="478" y="206.16" text-anchor="middle" font-size="11" fill="#555555" font-family="sans-serif">236.1</text><circle cx="594" cy="194.74" r="3.5" fill="#4c78a8" fill-opacity="1" stroke="#fafafa" stroke-width="1.5"/><text x="594" y="184.74" text-anchor="middle" font-size="11" fill="#555555" font-family="sans-serif">258.3</text><circle cx="710" cy="152.95" r="3.5" fill="#4c78a8" fill-opacity="1" stroke="#fafafa" stroke-width="1.5"/><text x="710" y="142.95" text-anchor="middle" font-size="11" fill="#555555" font-family="sans-serif">301.6</text><polyline points="130,305.81 246,290.95 362,278.69 478,269.91 594,254.08 710,237" fill="none" stroke="#f58518" stroke-width="2.5"/><circle cx="130" cy="305.81" r="3.5" fill="#f58518" fill-opacity="1" stroke="#fafafa" stroke-width="1.5"/><text x="130" y="295.81" text-anchor="middle" font-size="11" fill="#555555" font-family="sans-serif">143.2</text><circle cx="246" cy="290.95" r="3.5" fill="#f58518" fill-opacity="1" stroke="#fafafa" stroke-width="1.5"/><text x="246" y="280.95" text-anchor="middle" font-size="11" fill="#555555" font-family="sans-serif">158.6</text><circle cx="362" cy="278.69" r="3.5" fill="#f58518" fill-opacity="1" stroke="#fafafa" stroke-width="1.5"/><text x="362" y="268.69" text-anchor="middle" font-size="11" fill="#555555" font-family="sans-serif">171.3</text><circle cx="478" cy="269.91" r="3.5" fill="#f58518" fill-opacity="1" stroke="#fafafa" stroke-width="1.5"/><text x="478" y="259.91" text-anchor="middle" font-size="11" fill="#555555" font-family="sans-serif">180.4</text><circle cx="594" cy="254.08" r="3.5" fill="#f58518" fill-opacity="1" stroke="#fafafa" stroke-width="1.5"/><text x="594" y="244.08" text-anchor="middle" font-size="11" fill="#555555" font-family="sans-serif">196.8</text><circle cx="710" cy="237" r="3.5" fill="#f58518" fill-opacity="1" stroke="#fafafa" stroke-width="1.5"/><text x="710" y="227" text-anchor="middle" font-size="11" fill="#555555" font-family="sans-serif">214.5</text><polyline points="130,326.46 246,315.26 362,299.34 478,286.99 594,262.38 710,245.3" fill="none" stroke="#54a24b" stroke-width="2.5"/><circle cx="130" cy="326.46" r="3.5" fill="#54a24b" fill-opacity="1" stroke="#fafafa" stroke-width="1.5"/><text x="130" y="316.46" text-anchor="middle" font-size="11" fill="#555555" font-family="sans-serif">121.8</text><circle cx="246" cy="315.26" r="3.5" fill="#54a24b" fill-opacity="1" stroke="#fafafa" stroke-width="1.5"/><text x="246" y="305.26" text-anchor="middle" font-size="11" fill="#555555" font-family="sans-serif">133.4</text><circle cx="362" cy="299.34" r="3.5" fill="#54a24b" fill-opacity="1" stroke="#fafafa" stroke-width="1.5"/><text x="362" y="289.34" text-anchor="middle" font-size="11" fill="#555555" font-family="sans-serif">149.9</text><circle cx="478" cy="286.99" r="3.5" fill="#54a24b" fill-opacity="1" stroke="#fafafa" stroke-width="1.5"/><text x="478" y="276.99" text-anchor="middle" font-size="11" fill="#555555" font-family="sans-serif">162.7</text><circle cx="594" cy="262.38" r="3.5" fill="#54a24b" fill-opacity="1" stroke="#fafafa" stroke-width="1.5"/><text x="594" y="252.38" text-anchor="middle" font-size="11" fill="#555555" font-family="sans-serif">188.2</text><circle cx="710" cy="245.3" r="3.5" fill="#54a24b" fill-opacity="1" stroke="#fafafa" stroke-width="1.5"/><text x="710" y="235.3" text-anchor="middle" font-size="11" fill="#555555" font-family="sans-serif">205.9</text><text x="130" y="466" text-anchor="middle" font-size="13" fill="#555555" font-family="sans-serif">1月</text><text x="246" y="466" text-anchor="middle" font-size="13" fill="#555555" font-family="sans-serif">2月</text><text x="362" y="466" text-anchor="middle" font-size="13" fill="#555555" font-family="sans-serif">3月</text><text x="478" y="466" text-anchor="middle" font-size="13" fill="#555555" font-family="sans-serif">4月</text><text x="594" y="466" text-anchor="middle" font-size="13" fill="#555555" font-family="sans-serif">5月</text><text x="710" y="466" text-anchor="middle" font-size="13" fill="#555555" font-family="sans-serif">6月</text><rect x="670" y="68" width="88" height="74" fill="#ffffff" stroke="#e8e8e8" stroke-width="1"/><rect x="680" y="87" width="14" height="14" fill="#4c78a8"/><text x="700" y="99" text-anchor="start" font-size="13" fill="#555555" font-family="sans-serif">华东</text><rect x="680" y="107" width="14" height="14" fill="#f58518"/><text x="700" y="119" text-anchor="start" font-size="13" fill="#555555" font-family="sans-serif">华北</text><rect x="680" y="127" width="14" height="14" fill="#54a24b"/><text x="700" y="139" text-anchor="start" font-size="13" fill="#555555" font-family="sans-serif">华南</text></svg>