<svg xmlns="http://www.w3.org/2000/svg" width="800" height="500" viewBox="0 0 800 500"><rect width="800" height="500" fill="#ffffff"/><rect x="72" y="58" width="696" height="364" fill="#fafafa"/><line x1="72" y1="422" x2="768" y2="422" stroke="#e8e8e8" stroke-width="1"/><text x="60" y="426" text-anchor="end" font-size="13" fill="#555555" font-family="sans-serif">50</text><line x1="72" y1="331" x2="768" y2="331" stroke="#e8e8e8" stroke-width="1"/><text x="60" y="335" text-anchor="end" font-size="13" fill="#555555" font-family="sans-serif">60</text><line x1="72" y1="240" x2="768" y2="240" stroke="#e8e8e8" stroke-width="1"/><text x="60" y="244" text-anchor="end" font-size="13" fill="#555555" font-family="sans-serif">70</text><line x1="72" y1="149" x2="768" y2="149" stroke="#e8e8e8" stroke-width="1"/><text x="60" y="153" text-anchor="end" font-size="13" fill="#555555" font-family="sans-serif">80</text><line x1="72" y1="58" x2="768" y2="58" stroke="#e8e8e8" stroke-width="1"/><text x="60" y="62" text-anchor="end" font-size="13" fill="#555555" font-family="sans-serif">90</text><line x1="72" y1="58" x2="72" y2="422" stroke="#e8e8e8" stroke-width="1"/><line x1="72" y1="422" x2="72" y2="427" stroke="#888888" stroke-width="1"/><text x="72" y="444" text-anchor="middle" font-size="13" fill="#555555" font-family="sans-serif">150</text><line x1="211.2" y1="58" x2="211.2" y2="422" stroke="#e8e8e8" stroke-width="1"/><line x1="211.2" y1="422" x2="211.2" y2="427" stroke="#888888" stroke-width="1"/><text x="211.2" y="444" text-anchor="middle" font-size="13" fill="#555555" font-family="sans-serif">160</text><line x1="350.4" y1="58" x2="350.4" y2="422" stroke="#e8e8e8" stroke-width="1"/><line x1="350.4" y1="422" x2="350.4" y2="427" stroke="#888888" stroke-width="1"/><text x="350.4" y="444" text-anchor="middle" font-size="13" fill="#555555" font-family="sans-serif">170</text><line x1="489.6" y1="58" x2="489.6" y2="422" stroke="#e8e8e8" stroke-width="1"/><line x1="489.6" y1="422" x2="489.6" y2="427" stroke="#888888" stroke-width="1"/><text x="489.6" y="444" text-anchor="middle" font-size="13" fill="#555555" font-family="sans-serif">180</text><line x1="628.8" y1="58" x2="628.8" y2="422" stroke="#e8e8e8" stroke-width="1"/><line x1="628.8" y1="422" x2="628.8" y2="427" stroke="#888888" stroke-width="1"/><text x="628.8" y="444" text-anchor="middle" font-size="13" fill="#555555" font-family="sans-serif">190</text><line x1="768" y1="58" x2="768" y2="422" stroke="#e8e8e8" stroke-width="1"/><line x1="768" y1="422" x2="768" y2="427" stroke="#888888" stroke-width="1"/><text x="768" y="444" text-anchor="middle" font-size="13" fill="#555555" font-family="sans-serif">200</text><line x1="72" y1="58" x2="72" y2="422" stroke="#888888" stroke-width="1.5"/><line x1="72" y1="422" x2="768" y2="422" stroke="#888888" stroke-width="1.5"/><text x="400" y="34" text-anchor="middle" font-size="20" fill="#222222" font-family="sans-serif">Height vs Weight</text><text x="20" y="240" text-anchor="middle" font-size="14" fill="#555555" font-family="sans-serif" transform="rotate(-90 20 240)">Weight (kg)</text><text x="420" y="482" text-anchor="middle" font-size="14" fill="#555555" font-family="sans-serif">Height (cm)</text><line x1="186.14" y1="409.85" x2="631.58" y2="72.84" stroke="#4c78a8" stroke-width="2" stroke-dasharray="6 4"/><circle cx="186.14" cy="389.24" r="4.5" fill="#4c78a8" fill-opacity="0.85" stroke="#ffffff" stroke-width="1"/><circle cx="246" cy="375.59" r="4.5" fill="#4c78a8" fill-opacity="0.85" stroke="#ffffff" stroke-width="1"/><circle cx="282.19" cy="327.36" r="4.5" fill="#4c78a8" fill-opacity="0.85" stroke="#ffffff" stroke-width="1"/><circle cx="314.2" cy="332.82" r="4.5" fill="#4c78a8" fill-opacity="0.85" stroke="#ffffff" stroke-width="1"/><circle cx="350.4" cy="274.58" r="4.5" fill="#4c78a8" fill-opacity="0.85" stroke="#ffffff" stroke-width="1"/><circle cx="368.49" cy="290.05" r="4.5" fill="#4c78a8" fill-opacity="0.85" stroke="#ffffff" stroke-width="1"/><circle cx="403.29" cy="239.09" r="4.5" fill="#4c78a8" fill-opacity="0.85" stroke="#ffffff" stroke-width="1"/><circle cx="422.78" cy="249.1" r="4.5" fill="#4c78a8" fill-opacity="0.85" stroke="#ffffff" stroke-width="1"/><circle cx="446.44" cy="198.14" r="4.5" fill="#4c78a8" fill-opacity="0.85" stroke="#ffffff" stroke-width="1"/><circle cx="467.32" cy="210.88" r="4.5" fill="#4c78a8" fill-opacity="0.85" stroke="#ffffff" stroke-width="1"/><circle cx="499.34" cy="159.01" r="4.5" fill="#4c78a8" fill-opacity="0.85" stroke="#ffffff" stroke-width="1"/><circle cx="521.61" cy="166.29" r="4.5" fill="#4c78a8" fill-opacity="0.85" stroke="#ffffff" stroke-width="1"/><circle cx="559.2" cy="110.78" r="4.5" fill="#4c78a8" fill-opacity="0.85" stroke="#ffffff" stroke-width="1"/><circle cx="595.39" cy="112.6" r="4.5" fill="#4c78a8" fill-opacity="0.85" stroke="#ffffff" stroke-width="1"/><circle cx="631.58" cy="62.55" r="4.5" fill="#4c78a8" fill-opacity="0.85" stroke="#ffffff" stroke-width="1"/></svg>